<svg width="24" height="24" viewBox="0 0 24 24" fill="none" xmlns="http://www.w3.org/2000/svg">
<path d="M20.0625 10.5H13.5C12.9033 10.5 12.331 10.2629 11.909 9.84099C11.4871 9.41903 11.25 8.84674 11.25 8.25V1.6875C11.25 1.63777 11.2302 1.59008 11.1951 1.55492C11.1599 1.51975 11.1122 1.5 11.0625 1.5H6.75C5.95435 1.5 5.19129 1.81607 4.62868 2.37868C4.06607 2.94129 3.75 3.70435 3.75 4.5V19.5C3.75 20.2956 4.06607 21.0587 4.62868 21.6213C5.19129 22.1839 5.95435 22.5 6.75 22.5H17.25C18.0456 22.5 18.8087 22.1839 19.3713 21.6213C19.9339 21.0587 20.25 20.2956 20.25 19.5V10.6875C20.25 10.6378 20.2302 10.5901 20.1951 10.5549C20.1599 10.5198 20.1122 10.5 20.0625 10.5Z" fill="#1F1D25"/>
<path d="M19.6509 8.8403L12.9098 2.09921C12.8967 2.08618 12.8801 2.07731 12.8619 2.07373C12.8438 2.07014 12.825 2.072 12.8079 2.07906C12.7908 2.08612 12.7762 2.09808 12.7659 2.11342C12.7556 2.12877 12.7501 2.14682 12.75 2.1653V8.25014C12.75 8.44906 12.829 8.63982 12.9697 8.78047C13.1103 8.92113 13.3011 9.00014 13.5 9.00014H19.5848C19.6033 9.00007 19.6214 8.99453 19.6367 8.98422C19.6521 8.97391 19.664 8.9593 19.6711 8.94222C19.6781 8.92514 19.68 8.90635 19.6764 8.88821C19.6728 8.87008 19.664 8.85341 19.6509 8.8403Z" fill="#1F1D25"/>
</svg>
